# xmcd
#
# Track frame offsets:
#	150
#	25242
#	63377
#	85882
#	110890
#	134872
#	208159
#	252822
#
# Disc length: 4033 seconds
#
# Revision: 1
# Processed by: cddbd v1.5.1PL0 Copyright (c) Steve Scherf et al.
# Submitted via: audiograbber 1.83.01
#
DISCID=790fbf08
DTITLE=The Billy Gibson Band - Live At The Rum Boogie Cafe
DYEAR=2005
DGENRE=Blues
TTITLE0=What Is Love?
TTITLE1=Love Everybody
TTITLE2=Pretty Thing
TTITLE3=Home At Last (A.K.A Country Girl)
TTITLE4=Darling Please Come Home
TTITLE5=Bad Boy
TTITLE6=Early In The Morning
TTITLE7=Polk Salad Annie
EXTD=Recorded Live At The Rum Boogie Cafe On Historic Beale Street.
EXTT0=
EXTT1=
EXTT2=
EXTT3=
EXTT4=
EXTT5=
EXTT6=
EXTT7=
PLAYORDER=
